<svg version="1.0" xmlns="http://www.w3.org/2000/svg" width="933.333" height="933.333" viewBox="0 0 700 700"><path d="M327.8.5c-.1.1-4.1.5-8.8.9-4.7.4-9.6.8-11 1-1.4.2-4.6.7-7.1 1-2.5.4-5.7.9-7 1.1-1.3.2-4.2.6-6.3 1-14.1 2.1-47.8 11.3-60.1 16.5-1.1.4-4.9 1.9-8.5 3.3-3.6 1.4-8.6 3.4-11.3 4.6-2.6 1.1-5.1 2.1-5.5 2.2-.4.1-1.9 1-3.4 2-1.4 1-3 1.9-3.6 1.9-1.6 0-21.1 10.9-33.3 18.6-35.4 22.4-69 53.8-93.2 86.9-3.6 4.9-7.4 10.1-8.5 11.5-7.8 10.3-24.2 40.7-32.6 60.3C15.4 241.9 5 281.2 2.4 308.5c-.2 2.2-.7 7.6-1.1 12-1 10-1 49.6 0 59 .4 3.8 1 9.9 1.3 13.5.5 5.4 4.1 26.3 5.7 33.5 12.7 55.4 37.1 104.9 72.8 148 9.4 11.3 29.1 31.4 38.9 39.6 3.5 3 7.1 6 7.9 6.8.8.7 4.9 3.9 9 7 4.2 3.1 7.8 5.9 8.1 6.2.5.6 19.8 13.3 24.1 15.8 1.3.8 5.6 3.2 9.4 5.3 3.9 2.1 7.7 4.3 8.5 4.8 3.5 2.1 26.7 13 28.5 13.4.6.1 2.8 1 5 2 5.3 2.3 37.8 12.8 43.5 14 1.4.3 6.6 1.5 11.5 2.6 5 1.1 10.6 2.3 12.5 2.6 1.9.3 4.6.7 5.9.9 1.3.2 4.5.7 7 1.1 2.5.3 5.7.8 7.1 1 16.3 2.5 68.2 2.5 84.2-.1 1.3-.2 4.5-.6 7.2-1 42.5-5.4 91.8-22.7 130.6-46 9.5-5.7 28.4-18.5 33.5-22.7 17-13.9 22.9-19.1 33.5-29.8 13.7-13.7 20.1-20.9 30.6-34.5 30.5-39.5 54.1-90.1 63.9-136.8.2-1 .6-2.6.9-3.5.3-.9.7-3.3 1-5.2.3-1.9.8-4.5 1-5.6.2-1.2.7-3.9 1-6 .3-2.2.8-5 1.1-6.4.2-1.4.7-5.2 1-8.5.4-3.3.9-7.1 1.1-8.5.9-4.8 1.1-52.6.3-61.2-1.5-16.2-2.6-24.6-5.4-39.3-6.9-37-22.7-78.2-43.1-112.5-6.4-10.7-10.7-17-21.9-32.5-10.7-14.8-36.9-42.1-54-56.4-16.1-13.4-37-27.8-54-37.2C510.8 38.6 491 29 489.7 29c-.7 0-1.7-.4-2.2-.9-1.7-1.6-27.6-10.9-40.8-14.6-12.7-3.6-30.9-7.6-40-9-2.7-.3-5.8-.8-7-1.1-1.2-.2-4.9-.6-8.3-1-3.3-.3-7.4-.8-9-1-3.3-.5-54-1.4-54.6-.9z"/></svg>