<svg width="302" height="195" fill="none" xmlns="http://www.w3.org/2000/svg"><path d="M135.15 121.248c-11.66 12.606-24.914 21.005-39.762 25.197-14.832 4.135-31.538 3.613-50.116-1.566-2.942-.82-6.314-1.885-10.115-3.193a240.43 240.43 0 01-11.788-4.219 249.258 249.258 0 01-12.115-5.056c-3.993-1.735-7.658-3.534-10.994-5.397 4.908-5.782 8.995-11.856 12.261-18.22 3.34-6.406 6.064-13.388 8.171-20.946 4.277 3.617 8.952 7.034 14.024 10.252a202.33 202.33 0 0015.434 8.873 202.113 202.113 0 0015.658 7.069c5.204 2.073 10.078 3.774 14.62 5.102.096-.346.213-.656.352-.928.138-.272.255-.582.352-.928.997-3.577 1.149-6.799.456-9.666-.677-2.925-1.821-5.513-3.432-7.765a24.762 24.762 0 00-5.491-5.728c-2.108-1.583-4.108-2.886-5.999-3.91-1.89-1.025-3.491-1.751-4.802-2.18-1.237-.468-1.798-.687-1.682-.655l4.836-19.357c4.475 1.123 8.493 1.652 12.055 1.588 3.563-.064 6.715-.553 9.457-1.467 2.8-.899 5.186-2.099 7.16-3.6 2.046-1.544 3.755-3.213 5.126-5.007 1.428-1.778 2.56-3.608 3.395-5.489.893-1.865 1.565-3.605 2.015-5.221.129-.462.221-.902.276-1.322.071-.478.171-.947.299-1.41a186.472 186.472 0 00-18.099-2.993 137.639 137.639 0 00-18.135-.858 118.55 118.55 0 00-18.031 1.782c-6.016 1.059-12.02 2.743-18.01 5.052a100.386 100.386 0 00.243-23.623c-.85-7.884-2.393-15.839-4.634-23.863 4.563-.53 9.634-.765 15.213-.702 5.636.079 11.274.376 16.913.89a187.99 187.99 0 0116.489 2.08c5.353.87 9.992 1.852 13.915 2.946 8.193 2.284 15.889 5.455 23.09 9.515 7.2 4.059 13.611 8.83 19.233 14.315 5.638 5.427 10.3 11.453 13.988 18.077a63.398 63.398 0 017.391 20.994l-11.598-7.244c-.839 2.564-1.934 4.933-3.286 7.105a37.932 37.932 0 01-4.517 5.83 39.46 39.46 0 01-5.289 4.588 50.005 50.005 0 01-5.544 3.49c-4.263 2.356-8.846 4.188-13.749 5.495 3.106 3.353 5.75 6.919 7.93 10.698a54.658 54.658 0 012.563 5.191 28.638 28.638 0 011.938 5.764c.498 2.004.762 4.067.792 6.19.104 2.081-.113 4.197-.65 6.347 1.981-.193 3.979-.445 5.993-.754a70.807 70.807 0 006.2-1.163zm127.615 49.101c-2.986 5.136-6.738 9.562-11.256 13.277-4.46 3.731-9.679 6.504-15.657 8.32-5.936 1.889-12.599 2.705-19.989 2.448-7.349-.183-15.375-1.612-24.081-4.288-8.648-2.659-17.942-6.68-27.882-12.063-9.957-5.325-20.511-12.185-31.664-20.579l26.497-40.181c1.321 3.291 3.165 6.603 5.531 9.936a86.053 86.053 0 008.133 9.636 100.714 100.714 0 009.842 8.526c3.489 2.652 7.017 4.941 10.583 6.868 3.641 1.885 7.176 3.368 10.605 4.449 3.504 1.039 6.732 1.503 9.685 1.394 3.011-.094 5.647-.851 7.908-2.272 2.262-1.422 4-3.642 5.215-6.661.996-2.458 1.14-5.092.43-7.901-.709-2.81-2.085-5.68-4.127-8.613-1.986-2.916-4.509-5.796-7.572-8.639-3.046-2.901-6.437-5.681-10.173-8.339a114.284 114.284 0 00-11.747-7.379 109.686 109.686 0 00-12.354-5.869c-4.067-1.693-8.021-3.013-11.861-3.96-3.84-.946-7.352-1.396-10.536-1.35 3.596-2.418 7.811-4.041 12.643-4.87l14.194-38.202a77.488 77.488 0 01-5.585-8.738c-1.575-3.05-2.933-6.32-4.074-9.81a444.183 444.183 0 0029.653 11.065 366.096 366.096 0 0031.242 8.71 317.874 317.874 0 0032.347 5.752 283.238 283.238 0 0033.052 2.22c-4.601 6.24-8.525 12.732-11.772 19.475a153 153 0 00-8.085 20.971c-13.523-3.46-25.892-7.157-37.107-11.091-11.199-3.993-21.17-8.483-29.915-13.47l-6.687 17.63c3.891 1.209 7.482 2.49 10.774 3.842a254.796 254.796 0 018.749 3.745 308.518 308.518 0 018.047 3.922c5.656 3.132 10.441 6.487 14.356 10.065 3.988 3.537 7.196 7.198 9.623 10.984 2.5 3.743 4.31 7.512 5.428 11.306 1.177 3.81 1.826 7.504 1.947 11.083.138 3.52-.206 6.875-1.033 10.064-.77 3.206-1.878 6.068-3.327 8.587z" fill="#fff"/></svg>