<svg xmlns="http://www.w3.org/2000/svg" width="24" height="24"><g fill="none" fill-rule="evenodd"><path d="M0 0h24v24H0z"/><path stroke="#888" d="M12 22.5c7.991 0 10.5-2.501 10.5-10.466C22.5 4.047 19.97 1.5 12 1.5 4.03 1.5 1.5 4.048 1.5 12.034 1.5 20 4.009 22.5 12 22.5z"/><path fill="#888" d="M12.885 5c1.12.004 1.39.014 2.001.042.745.034 1.254.152 1.7.325.46.18.85.419 1.24.808.389.389.628.78.807 1.24.173.445.291.954.325 1.699.03.645.04.91.042 2.196v1.38c-.002 1.286-.012 1.552-.042 2.196-.034.745-.152 1.254-.325 1.7-.179.46-.418.85-.807 1.24-.39.389-.78.628-1.24.807-.446.173-.955.291-1.7.325-.678.031-.937.04-2.407.042h-.958c-1.47-.001-1.728-.01-2.407-.042-.745-.034-1.254-.152-1.7-.325a3.444 3.444 0 01-1.24-.807 3.457 3.457 0 01-.807-1.24c-.173-.446-.291-.955-.325-1.7-.028-.61-.038-.881-.041-2v-1.771c.003-1.12.013-1.39.04-2.001.035-.745.153-1.254.326-1.7.18-.46.419-.85.808-1.24.389-.388.78-.628 1.24-.807.445-.173.954-.291 1.699-.325.61-.028.881-.038 2.001-.041zm-.016 1.262h-1.738a35.23 35.23 0 00-1.96.04c-.682.031-1.053.145-1.3.241-.326.127-.56.279-.804.524a2.168 2.168 0 00-.524.805c-.096.246-.21.617-.241 1.3-.028.603-.037.861-.04 1.959v1.738a35.23 35.23 0 00.04 1.96c.031.682.145 1.053.24 1.3.128.326.28.56.525.805s.478.396.805.523c.246.096.617.21 1.3.241.737.034.959.041 2.828.041h.245c1.646 0 1.88-.009 2.584-.04.682-.032 1.053-.146 1.3-.242.326-.127.56-.278.805-.523s.396-.479.523-.805c.096-.247.21-.618.241-1.3.034-.738.041-.96.041-2.829v-.245c0-1.645-.009-1.879-.04-2.584-.032-.682-.146-1.053-.242-1.3a2.162 2.162 0 00-.523-.804 2.176 2.176 0 00-.805-.524c-.247-.096-.618-.21-1.3-.241a35.23 35.23 0 00-1.96-.04zM12 8.405a3.596 3.596 0 11-.001 7.191A3.596 3.596 0 0112 8.405zm0 1.262a2.333 2.333 0 100 4.668 2.333 2.333 0 000-4.668zm3.737-2.244a.84.84 0 110 1.68.84.84 0 010-1.68z"/></g></svg>