<svg width="965" height="465" fill="none" xmlns="http://www.w3.org/2000/svg"><path d="M474.265 188.489c-2.276 4.672-4.192 9.164-5.75 13.477-1.557 4.312-2.815 8.445-3.773 12.398-.958 3.953-1.647 7.757-2.066 11.41-.36 3.654-.54 7.128-.54 10.422 0 6.469.689 12.399 2.067 17.789 1.437 5.331 3.264 10.212 5.48 14.645 2.216 4.372 4.702 8.325 7.457 11.859 2.815 3.534 5.601 6.679 8.356 9.434-2.396 0-4.612-.12-6.649-.36-1.976-.239-4.162-.359-6.558-.359-2.576 0-5.091.18-7.547.539-2.456.3-4.971.749-7.547 1.348a105.6 105.6 0 00-7.906 2.425c-2.755.959-5.72 2.097-8.895 3.415-2.755-7.128-4.971-14.256-6.648-21.383a166.054 166.054 0 01-3.594-21.383 123.353 123.353 0 00-7.547 18.598c-2.036 6.468-3.504 13.416-4.402 20.843-.719 0-2.246.03-4.582.09-2.276.06-5.091.21-8.445.449-3.295.3-6.918.749-10.872 1.348a105.63 105.63 0 00-11.859 2.695c-.838-8.026-2.246-15.573-4.223-22.64-1.976-7.128-4.492-13.866-7.546-20.215a149.493 149.493 0 01-3.684 20.754c-1.737 6.948-3.953 13.896-6.648 20.844-12.339-5.151-24.648-7.727-36.926-7.727-1.857 0-4.073.12-6.649.359l-7.726.539c9.403-9.044 16.531-19.166 21.383-30.367 4.911-11.26 7.367-23.778 7.367-37.554 0-1.558-.06-3.205-.18-4.942-.12-1.797-.269-3.654-.449-5.57a228.33 228.33 0 00-14.375-12.488 604.825 604.825 0 00-15.992-12.489c2.515.479 5.869 1.138 10.062 1.977 4.253.778 9.314 1.168 15.184 1.168 5.091 0 10.721-.509 16.89-1.528 6.17-1.018 12.698-2.964 19.586-5.839 3.953 5.45 7.877 11.739 11.77 18.867 3.354 6.109 6.858 13.446 10.512 22.012 3.713 8.505 7.067 18.058 10.062 28.66l6.289-15.633a2387.531 2387.531 0 005.84-14.735 341.49 341.49 0 005.301-13.925 206.637 206.637 0 004.492-13.836 198.844 198.844 0 003.684-14.555c4.312 2.276 8.714 4.043 13.207 5.301 4.492 1.258 8.834 2.186 13.027 2.785 4.252.539 8.236.869 11.949.988 3.714.06 6.918.09 9.613.09zm129.645-1.797a71.91 71.91 0 00-5.93 5.301 69.492 69.492 0 00-5.301 5.75c5.631 1.078 10.961 2.815 15.993 5.211 5.031 2.336 9.403 5.301 13.117 8.895 3.713 3.593 6.648 7.786 8.805 12.578 2.216 4.731 3.324 10.002 3.324 15.812 0 6.589-1.108 12.548-3.324 17.879a46.659 46.659 0 01-9.075 14.195c-3.833 4.133-8.385 7.727-13.656 10.782-5.271 2.994-10.991 5.48-17.16 7.457-6.169 1.916-12.668 3.354-19.496 4.312a148.541 148.541 0 01-20.664 1.438c-2.456 0-5.002-.06-7.637-.18-2.635-.06-5.211-.18-7.727-.359a76.108 76.108 0 01-6.918-.809c-2.096-.299-3.863-.689-5.3-1.168a112.28 112.28 0 004.761-4.133 56.654 56.654 0 004.223-4.312c-5.69-1.078-11.051-2.696-16.082-4.852-4.971-2.156-9.344-4.911-13.117-8.265a39.013 39.013 0 01-8.985-11.95c-2.156-4.612-3.234-9.883-3.234-15.812 0-6.948 1.258-13.207 3.774-18.778a50.296 50.296 0 0110.511-15.003c4.433-4.373 9.643-8.116 15.633-11.231 5.99-3.115 12.428-5.69 19.316-7.726 6.888-2.037 14.046-3.534 21.473-4.493a175.402 175.402 0 0122.281-1.437c3.055 0 6.17.09 9.344.269 3.235.12 6.619.33 10.152.629h.899zm-8.984 47.258c0-5.091-1.109-9.254-3.325-12.488-2.156-3.235-5.031-5.81-8.625-7.727a91.211 91.211 0 00-1.886 4.852 62.074 62.074 0 00-1.618 5.031c-4.192-1.198-7.726-2.006-10.601-2.426-2.815-.419-5.181-.629-7.098-.629-3.773 0-7.577.629-11.41 1.887s-7.277 3.085-10.332 5.481c-3.055 2.335-5.57 5.21-7.547 8.625-1.917 3.354-2.875 7.157-2.875 11.41 0 4.073 1.018 7.816 3.055 11.23 2.096 3.354 4.821 6.469 8.176 9.344a36.59 36.59 0 001.168-5.66c.299-1.917.509-3.893.628-5.93 4.433 2.037 8.356 3.444 11.77 4.223 3.414.778 6.409 1.168 8.984 1.168 3.954 0 7.817-.629 11.59-1.887 3.774-1.318 7.128-3.204 10.063-5.66a28.03 28.03 0 007.187-8.895c1.797-3.534 2.696-7.517 2.696-11.949zm184-2.426a51.903 51.903 0 01.359 6.11c0 5.33-.928 10.481-2.785 15.453-1.797 4.971-4.343 9.643-7.637 14.015-3.294 4.373-7.217 8.386-11.769 12.039-4.553 3.594-9.524 6.709-14.915 9.344-5.39 2.576-11.14 4.582-17.25 6.02a81.336 81.336 0 01-18.687 2.156c-4.672 0-9.404-.479-14.195-1.437-4.732-.959-9.344-2.726-13.836-5.301-4.672.539-9.614 1.467-14.825 2.785a375.173 375.173 0 00-16.441 4.582c4.732-12.698 8.475-25.456 11.231-38.274a199.364 199.364 0 004.402-39.082c-3.893 1.737-7.757 3.894-11.59 6.469.3-2.096.539-3.923.719-5.48.179-1.558.269-2.845.269-3.864 0-12.039-3.504-22.46-10.511-31.265 2.036-.599 4.402-1.138 7.097-1.617 2.755-.48 5.69-.929 8.805-1.348 3.115-.419 6.289-.779 9.523-1.078 3.295-.3 6.469-.539 9.524-.719 3.114-.239 6.019-.389 8.715-.449 2.695-.12 5.001-.18 6.918-.18 12.039 0 22.97 1.288 32.793 3.863 9.882 2.576 18.328 6.11 25.336 10.602 7.007 4.432 12.398 9.643 16.171 15.633 3.834 5.93 5.75 12.279 5.75 19.047 0 .718-.03 1.407-.089 2.066-.06.659-.09 1.318-.09 1.977a61.892 61.892 0 007.008-2.067zm-39.801 5.93c-1.378-4.372-3.564-8.026-6.559-10.961-2.995-2.995-6.349-5.421-10.062-7.277a50.471 50.471 0 00-11.59-4.133c-3.953-.958-7.607-1.587-10.961-1.887-.359 11.62-.539 23.21-.539 34.77 0 5.151.03 10.332.09 15.543.119 5.151.269 10.332.449 15.543 4.672-1.498 9.044-3.474 13.117-5.93 4.073-2.456 7.517-5.421 10.332-8.895 2.875-3.474 5.001-7.427 6.379-11.859 1.378-4.432 1.737-9.344 1.078-14.734h3.863c1.438 0 2.905-.06 4.403-.18zm189.031 19.676a786.032 786.032 0 01-7.457 3.504 277.765 277.765 0 01-7.457 3.144c5.51 9.943 11.59 19.317 18.238 28.121-9.284 0-18.148.899-26.594 2.696-8.445 1.856-17.01 4.701-25.695 8.535a15.147 15.147 0 001.168-4.852c.18-1.617.27-3.294.27-5.031 0-2.875-.27-6.02-.809-9.434-.539-3.474-1.348-7.097-2.426-10.871-2.515.36-5.031.629-7.547.809-2.515.12-4.971.18-7.367.18-4.252 0-8.445-.24-12.578-.719a68.51 68.51 0 01-11.769-2.606 288.93 288.93 0 00-2.786 13.657 1347.87 1347.87 0 00-2.515 14.285c-3.055-1.558-6.409-2.965-10.063-4.223-3.114-1.018-6.738-1.976-10.871-2.875-4.073-.898-8.385-1.348-12.937-1.348-3.894 0-8.026.33-12.399.989-4.372.659-9.194 1.737-14.465 3.234a195.864 195.864 0 0011.411-12.219c3.593-4.192 6.858-8.205 9.793-12.039 2.994-3.893 5.63-7.517 7.906-10.871 2.336-3.414 4.282-6.379 5.84-8.894a62.275 62.275 0 01-4.852-6.739 93.15 93.15 0 01-4.133-7.726 148.855 148.855 0 007.098 3.324 204.07 204.07 0 006.918 2.695 426.219 426.219 0 018.715-14.644 209.217 209.217 0 019.793-14.375c-.719-1.737-1.647-3.714-2.785-5.93a128.249 128.249 0 00-3.594-6.828 120.11 120.11 0 00-4.043-7.098 135.583 135.583 0 00-4.223-6.468c5.75 1.557 11.5 2.785 17.25 3.683 5.81.899 11.59 1.498 17.34 1.797a95.243 95.243 0 0110.332-7.367 85.144 85.144 0 0111.32-6.02 167.7 167.7 0 00-3.683 6.469 237.624 237.624 0 00-3.504 6.738c2.995-.299 6.019-.629 9.074-.988 3.055-.419 6.229-.958 9.524-1.617a388.396 388.396 0 007.277 23.629 408.918 408.918 0 008.535 22.64 329.798 329.798 0 007.816-4.582 126.317 126.317 0 007.817-5.211c1.857 6.29 3.863 12.069 6.019 17.34 2.157 5.271 4.522 9.973 7.098 14.106zm-60.195-9.524a235.853 235.853 0 00-6.918-14.105 269.687 269.687 0 00-7.996-14.465c-3.534 9.464-6.769 19.526-9.703 30.188a28.66 28.66 0 003.144.179h3.234c3.055 0 6.08-.12 9.075-.359 3.054-.3 6.109-.779 9.164-1.438zm-730.908 37.033c-9.198-3.808-18.065-7.244-26.6-10.307a340.344 340.344 0 00-25.674-8.277 387.723 387.723 0 00-30.281-7.136c-10.207-1.975-20.91-3.621-32.107-4.94a596.312 596.312 0 018.991-2.81 138.917 138.917 0 019.116-2.588 201.431 201.431 0 007.697-17.907 205.592 205.592 0 006.004-18.193 218.154 218.154 0 005.82-27.571 301.633 301.633 0 002.72-28.155l8.308 2.316a182.214 182.214 0 0019.33 4.269c6.597 1.093 13.731 1.932 21.403 2.516a369.192 369.192 0 01-13.117 38.688c-5.045 12.521-11.038 24.872-17.977 37.053a304.369 304.369 0 0131.328-.967c10.631.228 21.624 1.054 32.979 2.479a142.371 142.371 0 00-2.647 6.817c-.774 2.333-1.5 4.711-2.175 7.134a99.638 99.638 0 00-2.836 13.853 72.237 72.237 0 00-.282 13.726zm142.22-69.198a71.677 71.677 0 00-7.135 3.513 69.259 69.259 0 00-6.65 4.116c5.134 2.55 9.802 5.655 14.005 9.314 4.219 3.601 7.635 7.631 10.247 12.09s4.313 9.286 5.104 14.48c.864 5.154.516 10.528-1.045 16.125-1.769 6.346-4.437 11.79-8.003 16.329a46.667 46.667 0 01-12.553 11.238c-4.802 2.951-10.152 5.19-16.05 6.718-5.881 1.469-12.058 2.327-18.532 2.575-6.457.189-13.103-.171-19.938-1.082a148.384 148.384 0 01-20.291-4.164 168.844 168.844 0 01-7.308-2.224 158.14 158.14 0 01-7.346-2.421 75.666 75.666 0 01-6.447-2.637c-1.939-.851-3.536-1.701-4.792-2.548a112.728 112.728 0 005.696-2.703 56.688 56.688 0 005.226-3.02c-5.192-2.566-9.921-5.564-14.189-8.992-4.209-3.412-7.681-7.24-10.415-11.484a38.986 38.986 0 01-5.446-13.923c-.839-5.022-.462-10.388 1.131-16.1 1.865-6.693 4.758-12.384 8.677-17.075a50.328 50.328 0 0114.155-11.63c5.443-3.021 11.468-5.228 18.074-6.62 6.606-1.391 13.5-2.143 20.682-2.255 7.182-.112 14.478.367 21.89 1.439a175.366 175.366 0 0121.849 4.598 166.45 166.45 0 018.928 2.769c3.084.984 6.287 2.095 9.611 3.332l.865.242zm-21.345 43.109c1.367-4.904 1.418-9.212.152-12.922-1.209-3.695-3.287-6.948-6.234-9.759a91.643 91.643 0 00-3.12 4.166 61.792 61.792 0 00-2.909 4.413c-3.717-2.28-6.904-4.008-9.56-5.184-2.6-1.16-4.822-1.997-6.669-2.512-3.634-1.013-7.467-1.429-11.497-1.246-4.031.182-7.839 1.017-11.424 2.504-3.57 1.43-6.766 3.524-9.586 6.282-2.747 2.716-4.692 6.122-5.834 10.219-1.093 3.923-1.118 7.803-.073 11.638 1.119 3.794 2.907 7.526 5.366 11.196a36.503 36.503 0 002.645-5.138 61.728 61.728 0 002.198-5.543c3.723 3.151 7.124 5.561 10.204 7.228 3.079 1.667 5.86 2.846 8.34 3.537a36.39 36.39 0 0011.671 1.295c3.989-.256 7.727-1.172 11.213-2.75a28.028 28.028 0 009.312-6.638c2.68-2.921 4.615-6.517 5.805-10.786z" fill="#000"/></svg>